<?xml version="1.0" encoding="UTF-8" standalone="no"?>
<svg
   viewBox="0 0 512 512"
   version="1.1"
   id="svg4"
   sodipodi:docname="mastodon.svg"
   width="512"
   height="512"
   inkscape:version="1.1.2 (1:1.1+202202050950+0a00cf5339)"
   xmlns:inkscape="http://www.inkscape.org/namespaces/inkscape"
   xmlns:sodipodi="http://sodipodi.sourceforge.net/DTD/sodipodi-0.dtd"
   xmlns="http://www.w3.org/2000/svg"
   xmlns:svg="http://www.w3.org/2000/svg">
  <defs
     id="defs8" />
  <sodipodi:namedview
     id="namedview6"
     pagecolor="#ffffff"
     bordercolor="#666666"
     borderopacity="1.0"
     inkscape:pageshadow="2"
     inkscape:pageopacity="0.0"
     inkscape:pagecheckerboard="0"
     showgrid="false"
     inkscape:zoom="1.495614"
     inkscape:cx="242.37538"
     inkscape:cy="256.75075"
     inkscape:window-width="1872"
     inkscape:window-height="1051"
     inkscape:window-x="48"
     inkscape:window-y="0"
     inkscape:window-maximized="1"
     inkscape:current-layer="svg4" />
  <!--! Font Awesome Pro 6.4.0 by @fontawesome - https://fontawesome.com License - https://fontawesome.com/license (Commercial License) Copyright 2023 Fonticons, Inc. -->
  <rect
     style="fill:#6364ff;fill-opacity:0.984314;stroke:none;stroke-width:12.5783;paint-order:fill markers stroke"
     id="rect847"
     width="512"
     height="512"
     x="0"
     y="0" />
  <path
     d="m 375.99095,211.83343 c 0,-55.80877 -36.57999,-72.17245 -36.57999,-72.17245 -35.89676,-16.47852 -131.231,-16.30627 -166.78325,0 0,0 -36.58574,16.36368 -36.58574,72.17245 0,66.4308 -3.78951,148.93821 60.64896,165.99092 23.2594,6.14354 43.24606,7.46412 59.3284,6.54546 29.17329,-1.60767 45.54272,-10.39237 45.54272,-10.39237 l -0.97608,-21.18666 c 0,0 -20.84791,6.54546 -44.27956,5.79905 -23.20198,-0.80382 -47.65564,-2.52631 -51.46235,-31.00487 a 58.874808,58.874808 0 0 1 -0.51674,-7.98086 c 49.1657,12.00001 91.09116,5.22487 102.63187,3.84687 32.22211,-3.84687 60.28727,-23.71298 63.8643,-41.85658 5.6268,-28.59339 5.16746,-69.76096 5.16746,-69.76096 z m -43.13121,71.88538 h -26.77328 v -65.56957 c 0,-28.53597 -36.74652,-29.62689 -36.74652,3.96173 v 35.88527 h -26.60102 v -35.89101 c 0,-33.58862 -36.74653,-32.4977 -36.74653,-3.96174 v 65.56957 H 179.1617 c 0,-70.10547 -2.98565,-84.9189 10.57036,-100.47876 14.87086,-16.59335 45.8298,-17.68426 59.61548,3.50241 l 6.66031,11.19619 6.6603,-11.19619 c 13.84311,-21.3015 44.85372,-19.98092 59.61549,-3.50241 13.61343,15.67469 10.56462,30.4307 10.56462,100.47876 z"
     id="path2"
     style="fill:#ffffff;fill-opacity:1;stroke-width:0.574163" />
</svg>
