<svg id="Layer_1" data-name="Layer 1" xmlns="http://www.w3.org/2000/svg" viewBox="0 0 487.92 473.76"><defs><style>.cls-1,.cls-3{fill:#404040;}.cls-1,.cls-2{fill-rule:evenodd;}.cls-2{fill:#e34d9a;}</style></defs><path class="cls-1" d="M331.03,12.34a6.812,6.812,0,0,1,4.28,2.91,5.522,5.522,0,0,1,.9,4.44,7.965,7.965,0,0,1-1.53,3.1,6.108,6.108,0,0,1-2.99,2.06,6.36,6.36,0,0,1-3.52.18,6.017,6.017,0,0,1-3.76-3.02,6.661,6.661,0,0,1-.8-5.2,5.873,5.873,0,0,1,2.71-3.86A5.992,5.992,0,0,1,331.03,12.34Z" transform="translate(-14.04 -12.12)"/><path class="cls-1" d="M294.41,21.12l2.76.25a8.161,8.161,0,0,1,.2,2.76c-.15,1.71-.29,3.04-.41,4l-.41,2.9c-.01.16-.03.54-.05,1.14l1.13.15c.16.02,1.72.09,4.66.22.23.02,1.47.1,3.71.24a10.908,10.908,0,0,1,.09,2.37,12.05,12.05,0,0,1-.59,2.62,16.158,16.158,0,0,1-2.49.07,13.859,13.859,0,0,1-1.56-.34l-2.57-.23-.89-.13-2.38-.07-1.8,18.87a47.288,47.288,0,0,0-.39,6.87,6.835,6.835,0,0,0,.92,2.7,5.923,5.923,0,0,0,2.47.77,6.064,6.064,0,0,0,2-.07,10.877,10.877,0,0,0,2.3-1.24c.22-.14.55-.35,1-.6a11.341,11.341,0,0,1,1.76,2.05l.15.61a12.013,12.013,0,0,1-5.25,3.83,14.979,14.979,0,0,1-6.84.96,10.056,10.056,0,0,1-7.19-3.59q-2.61-3.165-2.05-9.29l.98-8.67,1.26-14.06-1.52-.24-3.56-.22-.62-.3a1.489,1.489,0,0,1-.23-.86q.03-.3.3-2.19a30.846,30.846,0,0,0,8.86-4.08A31.357,31.357,0,0,0,294.41,21.12Z" transform="translate(-14.04 -12.12)"/><path class="cls-1" d="M257.42,28.81a21.376,21.376,0,0,1,6.18,1.37q.4,1.11,1.32,5.15c.62,2.7.94,4.29.99,4.79a2.235,2.235,0,0,1-.08.75,7.524,7.524,0,0,1-2.08.59q-.5.045-1.44.03c-.34-.43-.8-1.09-1.37-1.96a18.226,18.226,0,0,0-5.43-5.74,9.553,9.553,0,0,0-5.9-1.27,8.532,8.532,0,0,0-5.54,2.49,4.886,4.886,0,0,0-1.32,4.05,4.752,4.752,0,0,0,2.06,3.15c1.24,1.04,3.31,1.73,6.23,2.06a49.445,49.445,0,0,1,9.8,1.98,14.427,14.427,0,0,1,6.7,4.31,11.9,11.9,0,0,1,2.4,6.34,12.289,12.289,0,0,1-3.44,9.94q-3.96,4.215-12.24,4.98c-.72.07-2.62.08-5.71.03a37.456,37.456,0,0,1-4.97-.54c-.47-.09-1.71-.45-3.73-1.1a1.782,1.782,0,0,1-.83-.64,24.906,24.906,0,0,1-1.04-4.06q-1.35-5.94-1.5-7.12a11.956,11.956,0,0,1,2.14-.49c.23-.03.58-.04,1.04-.05l.49.45a51.952,51.952,0,0,0,4.02,5.35,20.822,20.822,0,0,0,3.7,2.94,15.139,15.139,0,0,0,3.7,1.3,9.939,9.939,0,0,0,3.5.28,7.713,7.713,0,0,0,5.14-2.49,5.806,5.806,0,0,0,1.82-4.52,4.413,4.413,0,0,0-1.08-2.61,8.513,8.513,0,0,0-3.56-1.89,54.419,54.419,0,0,0-6.35-1.2c-3.37-.52-5.42-.88-6.13-1.08a13.514,13.514,0,0,1-4.34-2.08A11.262,11.262,0,0,1,237.5,49a12.153,12.153,0,0,1-1.72-4.72,14.944,14.944,0,0,1,.52-6.24,12.921,12.921,0,0,1,2.67-4.5,13.239,13.239,0,0,1,4.08-2.91,16.808,16.808,0,0,1,6.08-1.7A46.688,46.688,0,0,1,257.42,28.81Z" transform="translate(-14.04 -12.12)"/><path class="cls-1" d="M328.08,33.12l3.24.79q-1.26,6.03-3.59,15.6l-5.14,19.62a30.6,30.6,0,0,0-.7,3.72,30.211,30.211,0,0,0,4.62,2.25,10.354,10.354,0,0,1,1.96.99l-.74,2.63c-.88-.18-1.52-.32-1.94-.42-.48-.12-1.22-.33-2.2-.64q-4.86-1.425-13.12-3.44c-1.58-.38-3.12-.7-4.63-.94s-2.53-.44-3.08-.57l.67-3.17,5.64.61a3.013,3.013,0,0,0,1.91-.59,6.122,6.122,0,0,0,1.17-2.81l.13-.53c.09-.39.29-1.08.59-2.08s.53-1.89.72-2.67c.15-.61.39-1.8.71-3.56l.67-2.4.48-2.28,2.06-7.84a17.554,17.554,0,0,0,.46-3.16,4.352,4.352,0,0,0-1.64-1.73,20.052,20.052,0,0,0-4.73-1.97l.66-2.7a24.243,24.243,0,0,0,9.26.04A20.653,20.653,0,0,0,328.08,33.12Z" transform="translate(-14.04 -12.12)"/><path class="cls-1" d="M212.67,57.21a30.533,30.533,0,0,0-5.08,4.99,14.979,14.979,0,0,0-3.31,5.77,7.568,7.568,0,0,0,.31,4.13,4.957,4.957,0,0,0,2.32,2.95,3.952,3.952,0,0,0,3.27.4,7.239,7.239,0,0,0,3.99-2.99q1.83-2.85,1.86-4.19t-1.81-6.97C213.76,59.92,213.25,58.55,212.67,57.21Zm-.52-20.47a8.045,8.045,0,0,1,5.13,2.9q1.95,2.385,4.3,9.52l2.46,7.82,1.97,5.68.48,1.46a5.055,5.055,0,0,0,1.42,2.54,1.7,1.7,0,0,0,1.61.29,1.511,1.511,0,0,0,.79-.58l.69-2.68.74-.61,1.31.35a1.441,1.441,0,0,1,.79.63l.12.22q.255,4.575-1.07,6.77a7.177,7.177,0,0,1-4.06,3.08,8.066,8.066,0,0,1-5.29.04,13.962,13.962,0,0,1-5.43-4.21,13.778,13.778,0,0,1-3.94,7.29,21.348,21.348,0,0,1-8.42,4.78c-3.27,1.07-5.9,1.18-7.89.31a7.259,7.259,0,0,1-4.09-4.64,8.387,8.387,0,0,1-.35-3.39,11.055,11.055,0,0,1,1.17-3.92,23.033,23.033,0,0,1,3.79-5.09c.29-.3,1.31-1.23,3.06-2.78l10.2-8.58c-.29-1.23-.65-2.46-1.05-3.69q-2.085-6.375-4.41-8.17a3.833,3.833,0,0,0-3.76-.33,10.882,10.882,0,0,0-4.05,2.32,6.78,6.78,0,0,0-2.12,3.26,12.374,12.374,0,0,0,.15,4.29,7.3,7.3,0,0,1,.18,2.61,6.358,6.358,0,0,1-2.04,2.47c-1.08.9-1.8,1.53-2.17,1.89a10.781,10.781,0,0,1-3.66,2.57,2.151,2.151,0,0,1-1.19-1.39,9.586,9.586,0,0,1-.38-5,21.175,21.175,0,0,1,3.38-7,25.364,25.364,0,0,1,5.2-5.71,34.043,34.043,0,0,1,9.48-4.58A14.949,14.949,0,0,1,212.15,36.74Z" transform="translate(-14.04 -12.12)"/><path class="cls-1" d="M360.8,44.4l2.5.98-2.51,5.01c-.3.48-.52.87-.67,1.17-.11.24-.41.94-.89,2.1a28.409,28.409,0,0,1,8.89-1.24,21.725,21.725,0,0,1,8.34,1.96,14.536,14.536,0,0,1,6.37,5.61,11.088,11.088,0,0,1,1.85,6.81q-.33,3.21-4.3,11.51L373.2,92.84a4.072,4.072,0,0,0-.46,1.88,9.2,9.2,0,0,0,2.16,1.81L376.89,98a2.621,2.621,0,0,1-.27,1.61c-.17.35-.41.83-.74,1.43l-8.47-4.83-2.64-1.15-2.06-.99-6.09-2.42-1.53-.73c.15-.39.28-.69.37-.89q.375-.78.9-1.65c.46.11,1.58.46,3.35,1.06a13.328,13.328,0,0,0,1.62.39,1.923,1.923,0,0,0,1.38-.23,8.676,8.676,0,0,0,1.75-2.74q1.8-3.765,2.72-5.8l2.54-5.18q4.515-9.465,4.43-12.37a6.014,6.014,0,0,0-3.48-5.8,13.466,13.466,0,0,0-5.78-1.2,25.941,25.941,0,0,0-7.39,1.23l-.46.72-1.26,2.86-1.52,2.96-3.25,7.25-.63,1.07q-3.5,7.305-3.35,8.52t3.46,4.24a7.049,7.049,0,0,1-.4,1.18,7.532,7.532,0,0,1-1.11,1.51c-.94-.42-1.72-.78-2.35-1.08a24.052,24.052,0,0,1-2.81-1.72l-4.75-2.4q-3.585-1.71-10.51-4.64a2.743,2.743,0,0,1,.26-1.01c.12-.24.36-.7.72-1.39a9.62,9.62,0,0,1,2.49.31,12.455,12.455,0,0,0,3.19.7,2.257,2.257,0,0,0,1.37-.56,19.462,19.462,0,0,0,2.15-3.82l1.87-3.9,1.57-3.16,2.12-4.77,1.35-2.82a21.478,21.478,0,0,0,1.76-4.83,2.916,2.916,0,0,0-.48-1.88,16.177,16.177,0,0,0-3.41-3.79l.98-2.17a7.336,7.336,0,0,1,1.17.26c.34.11,1.68.39,4.02.85q2.9.285,3.78.27c.19-.02.49-.04.91-.06a16.243,16.243,0,0,1,1.63-.32A19.064,19.064,0,0,0,360.8,44.4Z" transform="translate(-14.04 -12.12)"/><path class="cls-1" d="M167.93,54.05q4.275.51,5.69,2.79a5.953,5.953,0,0,1,1.01,4.25,4.736,4.736,0,0,1-2.4,3.25,5.971,5.971,0,0,1-3.9.83,9.839,9.839,0,0,1-4.8-2.35,7.4,7.4,0,0,0-3.7-1.63,5.551,5.551,0,0,0-3.36.9,11.085,11.085,0,0,0-5.01,7.77q-1.035,5.325,2.59,11.2,4.365,7.05,10.76,8.86t11.27-1.19a15.607,15.607,0,0,0,3.76-3.07,16.067,16.067,0,0,0,1.86-3.42,15.919,15.919,0,0,0,.64-2.9c.25-1.51.43-2.53.53-3.06a9.662,9.662,0,0,0,1.33-.12,5.418,5.418,0,0,1,2.22.09,15.41,15.41,0,0,1-1.04,10.72q-2.49,5.79-9.22,9.93a24.717,24.717,0,0,1-9.48,3.38,20.38,20.38,0,0,1-9.5-.63,17.372,17.372,0,0,1-6.25-3.73,24.093,24.093,0,0,1-4.37-4.95,23.2,23.2,0,0,1-2.66-6.96,22.031,22.031,0,0,1-.07-9.02,23.163,23.163,0,0,1,4.02-9.23,28.331,28.331,0,0,1,8.47-7.72Q163.64,53.54,167.93,54.05Z" transform="translate(-14.04 -12.12)"/><path class="cls-1" d="M377.68,117.24a6.2,6.2,0,0,0-5.53,2.18,5.153,5.153,0,0,0-1.09,3.61,10.556,10.556,0,0,0,2.14,5.41,29.713,29.713,0,0,0,5.25,5.84c.6.52,1.55,1.24,2.84,2.18q6.12,4.155,11.25,4.45,3.285.15,4.59-1.35a4.577,4.577,0,0,0,.98-1.97,6.223,6.223,0,0,0-.14-2.83,8.588,8.588,0,0,0-1.5-3.16,35.623,35.623,0,0,0-4.75-4.75l-4.56-4.06Q381.07,117.54,377.68,117.24ZM411.3,86.87a13.9,13.9,0,0,0-6.62,4.64q-.885,1.02-3.21,4.24a8.267,8.267,0,0,0-1.36,2.7,10.446,10.446,0,0,0-.57,3.47,7.083,7.083,0,0,0,.87,3.04,9.081,9.081,0,0,0,2.1,2.7,7.2,7.2,0,0,0,6.18,1.55q3.645-.615,7.58-5.15,5.205-6,5.39-9.44a7.048,7.048,0,0,0-2.71-5.94c-.25-.21-.97-.72-2.15-1.53Q414.7,85.935,411.3,86.87Zm-5.94-7.03a17.743,17.743,0,0,1,5.33.45q5.31,1.26,11.1,6.25a31.038,31.038,0,0,1,3.77,3.77,27.354,27.354,0,0,1,1.91,3.09l.98,1.76a33.4,33.4,0,0,1,1.2,5.36,55.112,55.112,0,0,0,6.36,3.19,11.75,11.75,0,0,1,2.77,1.66,1.846,1.846,0,0,1,.65,1.68c-.07.68-.79,1.81-2.15,3.38a7.055,7.055,0,0,1-3.05,2.39,2.035,2.035,0,0,1-1.86-.2,6.64,6.64,0,0,1-.87-1.66,16.031,16.031,0,0,0-3.02-4.77,19.819,19.819,0,0,1-3.36,5.69,12.653,12.653,0,0,1-6.13,3.85,14.952,14.952,0,0,1-7.81.18,21.527,21.527,0,0,1-9.53-4.61,42.476,42.476,0,0,1-3.29-3.03c-.79-.85-1.82-2.14-3.1-3.85a29.582,29.582,0,0,0-7.07-.85,2.52,2.52,0,0,0-1.88.87,2.392,2.392,0,0,0-.51,1.92,5.55,5.55,0,0,0,1.49,2.72c.18.2.41.48.7.86q1.86,1.875,5.17,4.72c.27.24,1.2.97,2.76,2.19.45.34.83.64,1.13.9q8.985,7.74,10.12,13.7a11.362,11.362,0,0,1-2.47,10.06,11.2,11.2,0,0,1-5.01,3.24,13.394,13.394,0,0,1-6.39.52,30.671,30.671,0,0,1-8.25-2.95,45.1,45.1,0,0,1-9.58-6.42,49.5,49.5,0,0,1-8.12-8.7,17.275,17.275,0,0,1-3.46-8.55,6.42,6.42,0,0,1,1.32-5.02,6.006,6.006,0,0,1,4.29-2.03q2.7-.195,10.55,3.03-3.975-5.655-4.19-8.82a7.015,7.015,0,0,1,1.61-5.26,4.643,4.643,0,0,1,3.14-1.81q1.68-.12,12.63,2.04c-1.21-3.62-1.68-6.51-1.41-8.69a12.653,12.653,0,0,1,2.8-6.88,19.729,19.729,0,0,1,5.34-4.18A19.432,19.432,0,0,1,405.36,79.84Z" transform="translate(-14.04 -12.12)"/><path class="cls-1" d="M116.11,93.85a7.6,7.6,0,0,0-6.38,8.38,12.559,12.559,0,0,0,3.42,7.77l8.14-7.86c.52-.51,1.22-1.26,2.09-2.26a19.664,19.664,0,0,1,1.36-1.52c.21-.21.54-.52.98-.92a14.64,14.64,0,0,0-4.53-3.03A8.368,8.368,0,0,0,116.11,93.85Zm9.72-6.54a16.635,16.635,0,0,1,5.24,1.38,18.958,18.958,0,0,1,5.39,3.81l-4,3.79q-1.62,1.6-7.45,6.72c-1.49,1.23-2.49,2.1-3.01,2.61q-.255.24-3.75,3.83l-3.05,2.99a8.062,8.062,0,0,0,.77.92,25.589,25.589,0,0,0,4.36,3.5,17.836,17.836,0,0,0,4.98,2.29,14.38,14.38,0,0,0,4.95.47,12.663,12.663,0,0,0,4.43-1.14l2.71-1.34a34.02,34.02,0,0,0,3.48-3.76,22.489,22.489,0,0,0,2.1-3.84,24.285,24.285,0,0,0,1.3-4.94c1.46-.22,2.71-.36,3.77-.43a28.655,28.655,0,0,1-1.57,11.32,24.73,24.73,0,0,1-5.97,8.89,24.206,24.206,0,0,1-5.06,4,19.512,19.512,0,0,1-6.2,2.26,18.438,18.438,0,0,1-6.5-.02,20.959,20.959,0,0,1-6-1.98,20.355,20.355,0,0,1-5.14-3.45,39.484,39.484,0,0,1-4.99-6.04,22.166,22.166,0,0,1-2.31-5.6,25.2,25.2,0,0,1-.24-8.68A19.15,19.15,0,0,1,106,98.73a20.237,20.237,0,0,1,3.12-4.4,31.833,31.833,0,0,1,5.89-4.77,14.579,14.579,0,0,1,4.88-1.91A23.105,23.105,0,0,1,125.83,87.31Z" transform="translate(-14.04 -12.12)"/><path class="cls-1" d="M89.44,118.38a5.487,5.487,0,0,1,4.5.73,6.641,6.641,0,0,1,2.63,3.58,4.7,4.7,0,0,1-.66,4.28,7.466,7.466,0,0,1-4,2.68,4.063,4.063,0,0,0-2.17,1.23l-.15.31a3.7,3.7,0,0,0,.49,2.63,10.4,10.4,0,0,0,3.46,4.06l1.16.67q3.135,1.9,14.35,9.46a5.845,5.845,0,0,0,2.58.62,5.909,5.909,0,0,0,1.84-.94,16.289,16.289,0,0,0,2.22-2.36c.97-1.19,1.67-1.83,2.09-1.94a1.7,1.7,0,0,1,1.42.37,4.83,4.83,0,0,1,1.04,1.07l-2.64,3.86-5.72,7.58a65.1,65.1,0,0,0-3.43,5.54l-.48.7c-.13.19-1.04,1.66-2.71,4.41a7.952,7.952,0,0,1-1.1-.57,7.2,7.2,0,0,1-.89-.79,3.832,3.832,0,0,1,.28-1.86,14.991,14.991,0,0,0,1.08-5.1c-.49-.7-2.61-2.33-6.38-4.91a164.876,164.876,0,0,0-14.31-9.13,2.107,2.107,0,0,0-1.59-.13,14.2,14.2,0,0,0-2.85,2.14,1.452,1.452,0,0,1-1.58.37l-1.6-.91a15.56,15.56,0,0,0,1.69-6.92,17.412,17.412,0,0,0-.86-6.01,12.878,12.878,0,0,1-.65-2.13l1.88-2.93a9.147,9.147,0,0,1,1.7.86c.3.21.66.47,1.08.8.94.68,1.72,1.24,2.35,1.67.3.21,1.44.97,3.43,2.29a46.181,46.181,0,0,1-2.17-5.1,29.426,29.426,0,0,1-.52-3.55,6.29,6.29,0,0,1,1.13-3.86A6.563,6.563,0,0,1,89.44,118.38Z" transform="translate(-14.04 -12.12)"/><path class="cls-1" d="M458.88,132.27q.765,1.275,3.31,4.84a37.2,37.2,0,0,1,10.5-4.06,25.138,25.138,0,0,1,9.43-.46l1.9.37a22.836,22.836,0,0,1,6.44,3.17,17.1,17.1,0,0,1,4.32,5.02,13.756,13.756,0,0,1,2.11,5.82,6.95,6.95,0,0,1-.91,4.42,8.146,8.146,0,0,1-2.49,2.56,5.167,5.167,0,0,1-3.98.47,5.027,5.027,0,0,1-3.29-2.25,5.083,5.083,0,0,1-.65-3.02,11.2,11.2,0,0,1,1.42-3.66,12.688,12.688,0,0,0,1.44-3.44,3.4,3.4,0,0,0-.56-2.09,3.586,3.586,0,0,0-2.4-1.68,6.714,6.714,0,0,0-3.76.39,56.247,56.247,0,0,0-7.9,4.21l-4.71,2.76-1.21.78.44.83,3.15,4.96a10.255,10.255,0,0,1,.58,1.26c-.1.6-.27.97-.5,1.1l-.86.4-1.15.69a9.011,9.011,0,0,1-1.06.46,2.112,2.112,0,0,1-.74-.77l-.23-.38-2.02-3.17a7.31,7.31,0,0,1-.65-1.28l-.23-.38a7.979,7.979,0,0,0-.95-1.16l-2.11,1.22c-.19.12-.5.32-.92.59-1.59,1.01-2.69,1.69-3.28,2.04l-6.28,3.72-4.52,2.8-3.68,2.15q-3.93,2.22-4.23,3.56c-.34,1.31.14,3.35,1.41,6.11a4.574,4.574,0,0,1,.49,1.49,13.574,13.574,0,0,1-1.22.96,8.758,8.758,0,0,1-1.43.62l-1.83-3.06c-.15-.25-1.05-1.97-2.68-5.14l-1.21-2.4q-1.98-3.315-3.24-5.05-.69-.9-4.38-6.78l2.36-1.47a25.7,25.7,0,0,1,2.83,2.44,10.5,10.5,0,0,0,2.53,2.05,2.11,2.11,0,0,0,1.6-.33l.94-.56q4.065-2.19,4.53-2.48c.26-.15.6-.38,1.04-.68l.49-.35.58-.29.38-.22,7.18-4.64,8.15-4.94.76-.57c-.3-.51-.73-1.28-1.27-2.31l-1.6-2.68c-.08-.18-.18-.45-.3-.8.76-.49,1.36-.88,1.82-1.15A3.446,3.446,0,0,1,458.88,132.27Z" transform="translate(-14.04 -12.12)"/><path class="cls-1" d="M71.03,168.97a12.537,12.537,0,0,0-5.54.1,10.209,10.209,0,0,0-6.98,12.43,11.547,11.547,0,0,0,4.47,5.67q2.235,1.635,10.3,5.12,5.865,1.98,6.81,2.16a18.192,18.192,0,0,0,6.06.33,8.055,8.055,0,0,0,3.73-1.82A10.714,10.714,0,0,0,93,188.62a8.591,8.591,0,0,0,.23-6.52q-1.17-3.195-5.29-6.1a56.473,56.473,0,0,0-9.49-4.73A34.536,34.536,0,0,0,71.03,168.97Zm5.3-9.96a20.449,20.449,0,0,1,7.54,1.46q6.135,2.58,9.1,6.02a20.555,20.555,0,0,1,5.17,11.17,24.259,24.259,0,0,1-1.99,12.3,23.656,23.656,0,0,1-8.29,10.77,21.5,21.5,0,0,1-10.26,4.05,23.519,23.519,0,0,1-11.02-2.11,21.72,21.72,0,0,1-5.73-3.59,19.363,19.363,0,0,1-4.22-5.03,21.323,21.323,0,0,1-2.22-5.48,23.166,23.166,0,0,1-.55-7.48,28.291,28.291,0,0,1,2.21-7.88q4.02-9.57,11.9-12.57A19.8,19.8,0,0,1,76.33,159.01Z" transform="translate(-14.04 -12.12)"/><path class="cls-1" d="M473.69,179.3q-2.745.3-11.06,3.21-5.64,2.505-6.47,3.02a18.212,18.212,0,0,0-4.68,3.86,7.967,7.967,0,0,0-1.51,3.87,10.839,10.839,0,0,0,.65,5.31,8.663,8.663,0,0,0,4.26,4.95c2.01,1.03,4.69,1.33,8.02.9a56.379,56.379,0,0,0,10.2-2.95q8.52-3.09,11.03-7.16a9.523,9.523,0,0,0,.86-8.65,9.384,9.384,0,0,0-4.17-5.22A11.454,11.454,0,0,0,473.69,179.3Zm-6.52-10.21a19.581,19.581,0,0,1,6.52.84,21.474,21.474,0,0,1,5.35,2.53,23.145,23.145,0,0,1,5.48,5.12,28.337,28.337,0,0,1,3.72,7.3q3.54,9.75-.22,17.3a19.886,19.886,0,0,1-5.04,6.87,20.63,20.63,0,0,1-6.54,4.03,24.148,24.148,0,0,1-10.78,1.74,20.581,20.581,0,0,1-11.38-4.71,24.341,24.341,0,0,1-6.89-10.4,23.788,23.788,0,0,1-1.21-13.54,21.643,21.643,0,0,1,4.8-9.93,23.48,23.48,0,0,1,9.54-5.9A21.435,21.435,0,0,1,467.17,169.09Z" transform="translate(-14.04 -12.12)"/><path class="cls-1" d="M21.85,201.15a23.06,23.06,0,0,1,3,.04l9.34.6a6.731,6.731,0,0,1,2.21.62,20.252,20.252,0,0,1-.13,2.64,2.5,2.5,0,0,1-.67,1.5,10.33,10.33,0,0,1-2.37.81c-3.5.9-5.63,1.78-6.37,2.66s-1.44,3.52-2.08,7.93L24,224.74a44.223,44.223,0,0,0-.5,6.89,9.738,9.738,0,0,0,.26,1.64,6.1,6.1,0,0,0,2.82,1.06l5.87.7,6.67,1.11a31.868,31.868,0,0,0,6.35.57,2.188,2.188,0,0,0,.46-.68l.55-3.48.85-5.87a54.9,54.9,0,0,0,.38-6.1,10.1,10.1,0,0,0-.29-3.55,4.472,4.472,0,0,0-1.74-1.97,22.636,22.636,0,0,0-5.76-1.61c.02-.17.07-.61.14-1.34.04-.46.07-.77.09-.94.05-.36.2-1.07.46-2.14l7.81,1.44c1.67.26,3.1.52,4.3.77l1.1.06c.33.01,2.75.35,7.27,1,.3.04.78.13,1.47.26a8.063,8.063,0,0,1-.02,1.52,14.4,14.4,0,0,1-.58,1.9,21.87,21.87,0,0,1-2.84.59c-2.7.38-4.32.97-4.87,1.8q-1.53,2.175-3.32,14.63a29.341,29.341,0,0,0-.27,4.26,30.285,30.285,0,0,0,4.71,1.04l14.77,1.88q4.08.54,5.13-.16c.45-.3,1.02-1.47,1.72-3.51l.24-.97a18.1,18.1,0,0,1,1.2-3.78l.49-1.29a14.531,14.531,0,0,1,2.01.1,14.809,14.809,0,0,1,1.87.42l-.18.92-.18,1.53-1.39,6.92q-.225,1.17-1.65,10.99a43.683,43.683,0,0,0-.45,5.2c-.08,2.63-.14,4.06-.17,4.29-.31,2.12-.54,3.58-.68,4.36l-3.57-.62c-.06-.74-.14-1.97-.22-3.69s-.22-3.44-.4-5.17l-.46-1.02a16.6,16.6,0,0,0-3.95-1.07l-.29-.05-11.36-1.44-4.76-.74-7.04-.82-8.32-1.3-16.52-1.79q-.8.63-2.07,4.56a28.034,28.034,0,0,1-1.2,2.73l-.46,1.14-3.44-.5,1.18-6.44q1.44-5.8,3.1-17.23.825-5.745,1.44-12.02l.08-.93.4-2.4.09-.99.3-2.06.98-8.82c.06-.4.1-.92.13-1.56S21.8,201.71,21.85,201.15Z" transform="translate(-14.04 -12.12)"/><path class="cls-1" d="M491.24,218.64a15.23,15.23,0,0,0,3.47,6.21,17.37,17.37,0,0,0,4.71,3.82,13.369,13.369,0,0,1,1.92,1.11l.62,3.43a8.876,8.876,0,0,1-1.83.53c-.36.05-.8.1-1.33.15-1.15.14-2.1.27-2.85.38-.36.06-1.72.28-4.07.67a48.171,48.171,0,0,1,5.06,2.25,30.755,30.755,0,0,1,2.8,2.24,6.312,6.312,0,0,1,1.79,3.6,6.586,6.586,0,0,1-1.08,4.8,5.487,5.487,0,0,1-3.78,2.53,6.627,6.627,0,0,1-4.37-.82,4.739,4.739,0,0,1-2.42-3.59,7.518,7.518,0,0,1,1.1-4.69,4.183,4.183,0,0,0,.75-2.37l-.1-.34a3.722,3.722,0,0,0-2.14-1.59,10.452,10.452,0,0,0-5.3-.61l-1.3.3q-3.585.75-16.92,2.87a5.859,5.859,0,0,0-2.31,1.3,6.083,6.083,0,0,0-.7,1.94,16.457,16.457,0,0,0-.02,3.25,6.134,6.134,0,0,1-.2,2.85,1.78,1.78,0,0,1-1.3.7,4.96,4.96,0,0,1-1.48-.08l-.7-4.62-.97-9.46c-.36-2.36-.78-4.5-1.27-6.4l-.12-.84q-.06-.345-1.02-5.07a7.545,7.545,0,0,1,1.19-.33,5.358,5.358,0,0,1,1.19-.03,3.941,3.941,0,0,1,1.06,1.55,14.9,14.9,0,0,0,2.68,4.47c.83.18,3.49-.08,8-.76a164.846,164.846,0,0,0,16.67-3.08,2.113,2.113,0,0,0,1.25-.99,14.666,14.666,0,0,0,.62-3.51,1.491,1.491,0,0,1,.9-1.35Z" transform="translate(-14.04 -12.12)"/><path class="cls-2" d="M136.58,243.84a29.1,29.1,0,0,1,4.82.58,35.972,35.972,0,0,1,5.12,1.42,23.433,23.433,0,0,1,.61,3.5,50.187,50.187,0,0,1,.4,5.43,7.173,7.173,0,0,1-.13,1.32l-.34.1-2.44-.17-.41-.07c-.99-2.98-1.99-5.01-2.98-6.07a8.111,8.111,0,0,0-6.07-2.72,7.645,7.645,0,0,0-5.28,1.75,5.591,5.591,0,0,0-1.95,4.33,6.047,6.047,0,0,0,1.93,4.18c1.27,1.34,3.96,2.61,8.08,3.83a38.406,38.406,0,0,1,5,1.96,14.48,14.48,0,0,1,4.46,2.95,12.61,12.61,0,0,1,2.8,4.05,13.5,13.5,0,0,1,.76,4.87,17.4,17.4,0,0,1-1.19,6.28,9.324,9.324,0,0,1-2.07,3.09,18.971,18.971,0,0,1-3.15,2.39,15.5,15.5,0,0,1-4.43,1.99,23.2,23.2,0,0,1-5.88.61,28.816,28.816,0,0,1-5.66-.68l-4.07-1.19a6.948,6.948,0,0,1-2.14-.84,1.342,1.342,0,0,1-.3-.65v-.37c0-.25-.06-1.8-.17-4.65-.05-1.47-.07-2.51-.07-3.12v-1.29l3.15-.07q1.635,3.78,2.1,4.56a11.052,11.052,0,0,0,2.32,2.81,9.5,9.5,0,0,0,3.03,1.7,11.273,11.273,0,0,0,3.83.63,12.17,12.17,0,0,0,4.03-.78,7.39,7.39,0,0,0,3.53-2.56,5.936,5.936,0,0,0-1-8.48q-1.425-1.32-7.66-3.53a37.793,37.793,0,0,1-8.65-3.94,11.905,11.905,0,0,1-3.8-4.63,12.9,12.9,0,0,1-1.39-5.59,12.293,12.293,0,0,1,3.87-9.16Q129.045,243.845,136.58,243.84Z" transform="translate(-14.04 -12.12)"/><path class="cls-2" d="M341.93,247.06a4.325,4.325,0,0,0-2.71,1.24q-1.47,1.23-2.11,4.52a66.636,66.636,0,0,0-.64,11.21l.06,2.41c.07,2.33.11,3.97.11,4.95a68.21,68.21,0,0,0,.47,10.07,7.084,7.084,0,0,0,1.82,3.93,4.039,4.039,0,0,0,2.83,1.31,4.276,4.276,0,0,0,2.62-.81,6.355,6.355,0,0,0,1.85-2.56,18.665,18.665,0,0,0,1.07-5.51q.51-6.135.51-8.77l-.1-4.47V259.8a38.769,38.769,0,0,0-.48-6.3,12.108,12.108,0,0,0-1.27-4.19,4.465,4.465,0,0,0-1.9-1.76A5.382,5.382,0,0,0,341.93,247.06Zm.65-2.98a10.276,10.276,0,0,1,6.15,2.2,18.563,18.563,0,0,1,5.33,7.28,30.348,30.348,0,0,1,2.34,12.73,42.321,42.321,0,0,1-1.29,10.64,22.289,22.289,0,0,1-2.33,5.58,18.7,18.7,0,0,1-2.49,3.54,14.1,14.1,0,0,1-3.74,2.65,8.187,8.187,0,0,1-3.29.98,16.677,16.677,0,0,1-5.64-.73,9.94,9.94,0,0,1-3.72-2.63,18.907,18.907,0,0,1-3.19-4.84,26.968,26.968,0,0,1-2.02-5.7,40.883,40.883,0,0,1-.85-8.85,30.194,30.194,0,0,1,.44-5.83,42.7,42.7,0,0,1,1.97-7.32,19.731,19.731,0,0,1,3.52-5.72,13.318,13.318,0,0,1,4.67-3.3A10.571,10.571,0,0,1,342.58,244.08Z" transform="translate(-14.04 -12.12)"/><path class="cls-2" d="M405.65,247.06a4.325,4.325,0,0,0-2.71,1.24q-1.47,1.23-2.11,4.52a66.636,66.636,0,0,0-.64,11.21l.06,2.41c.07,2.33.11,3.97.11,4.95a68.21,68.21,0,0,0,.47,10.07,7.084,7.084,0,0,0,1.82,3.93,4.039,4.039,0,0,0,2.83,1.31,4.276,4.276,0,0,0,2.62-.81,6.355,6.355,0,0,0,1.85-2.56,18.665,18.665,0,0,0,1.07-5.51q.51-6.135.51-8.77l-.1-4.47V259.8a38.769,38.769,0,0,0-.48-6.3,12.108,12.108,0,0,0-1.27-4.19,4.465,4.465,0,0,0-1.9-1.76A5.382,5.382,0,0,0,405.65,247.06Zm.65-2.98a10.276,10.276,0,0,1,6.15,2.2,18.563,18.563,0,0,1,5.33,7.28,30.348,30.348,0,0,1,2.34,12.73,42.321,42.321,0,0,1-1.29,10.64,22.289,22.289,0,0,1-2.33,5.58,18.7,18.7,0,0,1-2.49,3.54,14.1,14.1,0,0,1-3.74,2.65,8.187,8.187,0,0,1-3.29.98,16.677,16.677,0,0,1-5.64-.73,9.94,9.94,0,0,1-3.72-2.63,18.907,18.907,0,0,1-3.19-4.84,26.968,26.968,0,0,1-2.02-5.7,40.883,40.883,0,0,1-.85-8.85,30.194,30.194,0,0,1,.44-5.83,42.7,42.7,0,0,1,1.97-7.32,19.731,19.731,0,0,1,3.52-5.72,13.318,13.318,0,0,1,4.67-3.3A10.571,10.571,0,0,1,406.3,244.08Z" transform="translate(-14.04 -12.12)"/><path class="cls-2" d="M163.6,244.2a4.65,4.65,0,0,1,3.32,1.24,3.731,3.731,0,0,1,1.32,2.79,5.549,5.549,0,0,1-.53,2.31,4.168,4.168,0,0,1-1.66,1.85,4.4,4.4,0,0,1-2.32.69,4.159,4.159,0,0,1-3-1.39,4.578,4.578,0,0,1-1.37-3.32,4.038,4.038,0,0,1,1.19-3A4.146,4.146,0,0,1,163.6,244.2Z" transform="translate(-14.04 -12.12)"/><path class="cls-2" d="M310.68,244.44q5.97,0,9.39,3.36a11.41,11.41,0,0,1,3.42,8.48,11.222,11.222,0,0,1-.64,3.82,17.665,17.665,0,0,1-2.22,4.22,90.4,90.4,0,0,1-7.17,7.65q-4.23,4.215-10.6,10.01l3.75.06,6.16-.13,3.58.07a7.787,7.787,0,0,0,3.77-.61,5.674,5.674,0,0,0,1.71-2.88c.11-.36.32-.9.61-1.62l2.27-.14.44.14a1,1,0,0,1,.17.51,7.059,7.059,0,0,1-.17,1.35q-.165.81-.39,2.67c-.15,1.24-.51,3.71-1.1,7.41h-3.52c-.84,0-1.49-.02-1.97-.04-.74-.02-1.2-.03-1.35-.03l-2.31.1-.61-.07a16.1,16.1,0,0,0-2-.1c-.74,0-2.02.03-3.82.1-.86.02-1.38.04-1.56.04l-3.42-.07-5.49.07h-2.17v-2.3a108.389,108.389,0,0,1,7.23-8.5,102.841,102.841,0,0,0,6.9-8.02,26.934,26.934,0,0,0,4.28-6.9,15.01,15.01,0,0,0,1.17-5.27,12.934,12.934,0,0,0-.73-4.49,6.006,6.006,0,0,0-2.57-3.14,7.7,7.7,0,0,0-7.98-.07,6.667,6.667,0,0,0-2.57,2.74,13.744,13.744,0,0,0-1.53,5h-2.47c-.07-.97-.1-1.78-.1-2.44a9.64,9.64,0,0,1,2.54-6.3Q303.54,244.44,310.68,244.44Z" transform="translate(-14.04 -12.12)"/><path class="cls-2" d="M374.4,244.44q5.97,0,9.39,3.36a11.41,11.41,0,0,1,3.42,8.48,11.222,11.222,0,0,1-.64,3.82,17.665,17.665,0,0,1-2.22,4.22,90.4,90.4,0,0,1-7.17,7.65q-4.23,4.215-10.6,10.01l3.75.06,6.16-.13,3.58.07a7.787,7.787,0,0,0,3.77-.61,5.674,5.674,0,0,0,1.71-2.88c.11-.36.32-.9.61-1.62l2.27-.14.44.14a1,1,0,0,1,.17.51,7.059,7.059,0,0,1-.17,1.35q-.165.81-.39,2.67c-.15,1.24-.51,3.71-1.1,7.41h-3.52c-.84,0-1.49-.02-1.97-.04-.74-.02-1.2-.03-1.35-.03l-2.31.1-.61-.07a16.1,16.1,0,0,0-2-.1c-.74,0-2.02.03-3.82.1-.86.02-1.38.04-1.56.04l-3.42-.07-5.49.07h-2.17v-2.3a108.389,108.389,0,0,1,7.23-8.5,102.841,102.841,0,0,0,6.9-8.02,26.934,26.934,0,0,0,4.28-6.9,15.01,15.01,0,0,0,1.17-5.27,12.934,12.934,0,0,0-.73-4.49,6.006,6.006,0,0,0-2.57-3.14,7.7,7.7,0,0,0-7.98-.07,6.667,6.667,0,0,0-2.57,2.74,13.744,13.744,0,0,0-1.53,5h-2.47c-.07-.97-.1-1.78-.1-2.44a9.64,9.64,0,0,1,2.54-6.3Q367.26,244.44,374.4,244.44Z" transform="translate(-14.04 -12.12)"/><path class="cls-2" d="M185.48,258.36l-.07,3.83c-.04.39-.06.69-.06.92q0,.27.06,1.56a19.313,19.313,0,0,1,5.1-3.39,14.816,14.816,0,0,1,5.71-1.26,9.941,9.941,0,0,1,5.58,1.58,7.545,7.545,0,0,1,3.14,3.66q.735,2.07.74,8.36l-.13,11.08a2.741,2.741,0,0,0,.27,1.29,6.222,6.222,0,0,0,1.86.48l1.66.32a1.825,1.825,0,0,1,.3,1.07c0,.26-.01.63-.03,1.1l-6.64-.47-1.96.06h-1.55l-4.47.31h-1.15q-.03-.435-.03-.66c0-.39.02-.82.06-1.28.32-.07,1.11-.18,2.37-.34a6.872,6.872,0,0,0,1.12-.24q.675-.27.78-.54a5.965,5.965,0,0,0,.27-2.21c0-1.9-.01-3.36-.04-4.38l.04-3.94c0-4.78-.31-7.76-.91-8.93a4.117,4.117,0,0,0-3.85-2.55,9.017,9.017,0,0,0-3.92.97,17.273,17.273,0,0,0-4.18,2.94l-.07.57.07,2.14-.07,2.27.14,5.43-.07.85q0,5.535.44,6.24c.3.48,1.43,1.01,3.38,1.59a5.126,5.126,0,0,1,.1.85,5.492,5.492,0,0,1-.23,1.25c-.7.02-1.29.04-1.77.04a17.548,17.548,0,0,1-2.24-.23l-3.62-.08q-2.715,0-7.83.24a1.86,1.86,0,0,1-.14-.7c0-.18.01-.54.03-1.07a7.453,7.453,0,0,1,1.63-.55,8.042,8.042,0,0,0,2.16-.51,1.5,1.5,0,0,0,.68-.74,13.111,13.111,0,0,0,.2-2.99v-2.96l.04-2.41-.1-3.57v-2.14a15.1,15.1,0,0,0-.34-3.49,2.032,2.032,0,0,0-.85-1.02,10.781,10.781,0,0,0-3.21-1.33l-.04-1.63a4.928,4.928,0,0,1,.8-.18c.23-.04,1.14-.26,2.72-.66,1.24-.46,2.04-.77,2.4-.95.12-.07.3-.17.55-.31a10.26,10.26,0,0,1,.91-.68,13.163,13.163,0,0,0,2.44-2.47Z" transform="translate(-14.04 -12.12)"/><path class="cls-2" d="M165.01,258.48h2.27q.135,4.2.14,10.89l-.24,13.8a20,20,0,0,0,.14,2.57,20.981,20.981,0,0,0,3.42.75,7.031,7.031,0,0,1,1.46.34l-.07,1.86q-.915.03-1.35.03c-.34,0-.86-.02-1.56-.07q-3.45-.165-9.24-.17c-1.11,0-2.18.04-3.22.12s-1.75.12-2.13.12l-.07-2.2,3.83-.51a2,2,0,0,0,1.17-.69,4.04,4.04,0,0,0,.33-2.05v-.37c0-.27.01-.76.05-1.47s.05-1.34.05-1.88c0-.43-.04-1.25-.1-2.47l.05-1.69-.05-1.59.1-5.51a11.8,11.8,0,0,0-.21-2.17,3.015,3.015,0,0,0-1.36-.88,14.478,14.478,0,0,0-3.45-.54v-1.89a16.7,16.7,0,0,0,6.14-1.45A14.233,14.233,0,0,0,165.01,258.48Z" transform="translate(-14.04 -12.12)"/><path class="cls-2" d="M229.88,259.8q5.865,0,8.18,1.83c1.54,1.22,2.3,2.43,2.3,3.65a4.074,4.074,0,0,1-.93,2.83,3.292,3.292,0,0,1-2.56,1.03,4.112,4.112,0,0,1-2.56-.91,6.713,6.713,0,0,1-1.95-3.08,5,5,0,0,0-1.57-2.27,3.813,3.813,0,0,0-2.27-.68,7.568,7.568,0,0,0-5.7,2.73,10.487,10.487,0,0,0-2.51,7.42q0,5.655,3.07,8.99a9.282,9.282,0,0,0,6.97,3.33,10.941,10.941,0,0,0,3.3-.44,10.775,10.775,0,0,0,2.3-1.32,11.858,11.858,0,0,0,1.41-1.46q1.035-1.17,1.41-1.59a6.092,6.092,0,0,0,.81.41,3.821,3.821,0,0,1,1.26.85,10.55,10.55,0,0,1-4.45,5.85,15.15,15.15,0,0,1-8.92,2.47,16.94,16.94,0,0,1-6.72-1.42,13.988,13.988,0,0,1-5.3-3.76,11.873,11.873,0,0,1-2.29-4.4,16.1,16.1,0,0,1-.76-4.43,15.821,15.821,0,0,1,.95-4.99,15.085,15.085,0,0,1,3.19-5.26,15.909,15.909,0,0,1,5.65-3.93A19.6,19.6,0,0,1,229.88,259.8Z" transform="translate(-14.04 -12.12)"/><path class="cls-2" d="M258.24,262.05a5.46,5.46,0,0,0-4.09,2,8.731,8.731,0,0,0-2.06,5.42l7.71.07c.49,0,1.19-.03,2.1-.1q.975-.09,1.38-.09c.2,0,.51,0,.91.02a10.022,10.022,0,0,0-.74-3.64,5.736,5.736,0,0,0-2.2-2.71A5.5,5.5,0,0,0,258.24,262.05Zm-.6-2.13a21.63,21.63,0,0,1,5.13.49,9.994,9.994,0,0,1,3.28,1.41,15.9,15.9,0,0,1,3.05,2.67,11.308,11.308,0,0,1,1.87,3.18,12.935,12.935,0,0,1,.8,4.43l-3.76-.06c-1.03,0-3.31-.1-6.82-.3-1.31-.11-2.21-.17-2.71-.17-.16,0-1.37.03-3.65.07h-2.91a6.72,6.72,0,0,0-.06.82,17.606,17.606,0,0,0,.43,3.78,12.491,12.491,0,0,0,1.32,3.5,9.993,9.993,0,0,0,2.18,2.6,8.743,8.743,0,0,0,2.69,1.56l1.96.65a22.845,22.845,0,0,0,3.48-.17,15.392,15.392,0,0,0,2.86-.87,16.489,16.489,0,0,0,2.99-1.78c.81.59,1.49,1.12,2.03,1.6a19.56,19.56,0,0,1-6.17,4.76,18.927,18.927,0,0,1-11.51,1,13.27,13.27,0,0,1-4.09-1.87,12.412,12.412,0,0,1-3.14-3.12,15.813,15.813,0,0,1-2.81-7.97,27.7,27.7,0,0,1,.47-5.32,15.347,15.347,0,0,1,1.56-3.84,17.392,17.392,0,0,1,4.04-4.34,13.2,13.2,0,0,1,3.87-2.07A13.658,13.658,0,0,1,257.64,259.92Z" transform="translate(-14.04 -12.12)"/><circle class="cls-3" cx="33.42" cy="285.06" r="9.78"/><circle class="cls-3" cx="486.18" cy="297.18" r="9.78" transform="translate(-61.3 485.381) rotate(-52.018)"/><path class="cls-1" d="M451.18,354.37a9.352,9.352,0,0,0-5.42,4.02,10.817,10.817,0,0,0-1.61,3.81,7.877,7.877,0,0,0,.11,3.84,15.02,15.02,0,0,0,2.52,4.96,22.524,22.524,0,0,0,5.17,4.98q6.555,4.395,11.9,3.94a12.657,12.657,0,0,0,8.85-4.59c.43-.53.78-1,1.05-1.4a9.945,9.945,0,0,0,1.34-3.22,20.069,20.069,0,0,0,.52-4.29c-.87-.63-1.41-1.01-1.62-1.15q-12.78-8.55-15.64-9.95A10.036,10.036,0,0,0,451.18,354.37Zm-17-28.09a6.415,6.415,0,0,1,1.41.59l.58.45.72.49c.76.5,2.78,1.8,6.09,3.9l2.17,1.45,1.2.74,1.99,1.39,4.27,2.69,2.4,1.73q1.56,1.155,5.02,3.48c.38.25.72.46,1.04.63l1.49,1c.41.32.72.54.94.69a20.517,20.517,0,0,0,1.81,1.04l2.22,1.48.82.61c.74.58,1.8,1.32,3.17,2.24q2.085,1.395,3.84,2.46c.47.27.9.54,1.27.79l3.03,2.03c.96.64,2.13,1.39,3.51,2.24a11.867,11.867,0,0,0,3.02-3.13,10.961,10.961,0,0,1,1.25-1.44,3.863,3.863,0,0,1,1.02.4,3.948,3.948,0,0,1,.9,1.01,34.148,34.148,0,0,1-1.71,3.87q-3,6-3.32,9.17a5,5,0,0,1-.4,2.01,8.118,8.118,0,0,1-.76.96c-.47-.36-.77-.58-.9-.67a35.582,35.582,0,0,0-3.62-2.24c-.05.55-.1,1.23-.14,2.06a25,25,0,0,1-1.03,6.44,22.7,22.7,0,0,1-2.76,5.51q-3.39,5.085-7.35,6.82a18.447,18.447,0,0,1-10.9,1.67,26.078,26.078,0,0,1-9.81-4.09q-8.13-5.46-8.89-16.82a18.384,18.384,0,0,1,.57-5.14,30.291,30.291,0,0,1,2.54-5.81l1.5-2.26a16.681,16.681,0,0,1,8.65-6.42l-.91-.73-2.73-1.76-4.2-3.05q-6.81-4.56-9.32-4.73a2.846,2.846,0,0,0-2.58,1.34,7.892,7.892,0,0,1-2.16,2.09l-1.93-1.29a8.486,8.486,0,0,1,1.06-2.16,34.131,34.131,0,0,0,2.32-5.27l.64-1.57,1.73-4.62a11.258,11.258,0,0,1,.72-1.68A5.419,5.419,0,0,1,434.18,326.28Z" transform="translate(-14.04 -12.12)"/><path class="cls-1" d="M97.45,334.47a18.221,18.221,0,0,1,7.26.21q7.53,1.695,13.41,10.71a42.99,42.99,0,0,1,3.07,6.22,52.234,52.234,0,0,1,2.29,7.24,31.479,31.479,0,0,1-3.71,3.46,70.967,70.967,0,0,1-6.17,4.73,10.263,10.263,0,0,1-1.69.87l-.39-.33-1.71-3.06-.23-.54q4.185-5.28,4.94-8.31a11.61,11.61,0,0,0-1.5-9.39,10.823,10.823,0,0,0-6.21-4.95,7.964,7.964,0,0,0-6.7,1.04,8.543,8.543,0,0,0-3.49,5.58q-.915,3.825,1.72,12.66a54.669,54.669,0,0,1,1.56,7.52,21,21,0,0,1-.04,7.64,18.167,18.167,0,0,1-2.68,6.52A19.123,19.123,0,0,1,91.95,387a24.608,24.608,0,0,1-8.44,3.49,13.419,13.419,0,0,1-5.31-.07,28.016,28.016,0,0,1-5.33-1.91,22.25,22.25,0,0,1-5.83-3.75,33.408,33.408,0,0,1-5.33-6.57,41.434,41.434,0,0,1-3.61-7.31l-1.75-5.8a9.55,9.55,0,0,1-.66-3.23,1.838,1.838,0,0,1,.54-.86l.44-.3q.45-.285,5.43-3.83c1.73-1.2,2.95-2.04,3.69-2.52l1.54-1,2.54,3.72c-2.17,3.27-3.44,5.29-3.82,6.08a16.186,16.186,0,0,0-1.55,4.97,14.119,14.119,0,0,0,.33,4.96,16.178,16.178,0,0,0,2.23,5.07,17.731,17.731,0,0,0,4.09,4.22,10.552,10.552,0,0,0,5.83,2.23,8.469,8.469,0,0,0,9.36-7.82c.31-1.83-.27-5.8-1.76-11.94s-2.16-10.61-2.04-13.43a17.111,17.111,0,0,1,2.58-8.17,18.357,18.357,0,0,1,5.6-6.02A17.982,17.982,0,0,1,97.45,334.47Z" transform="translate(-14.04 -12.12)"/><path class="cls-1" d="M118.63,390a11.136,11.136,0,0,0-6.68,2.21q-2.235,1.5-8.14,7.74c-2.5,3.15-3.92,4.99-4.24,5.53a17.615,17.615,0,0,0-2.32,5.45,7.877,7.877,0,0,0,.43,4.04,10.37,10.37,0,0,0,2.94,4.313,8.406,8.406,0,0,0,5.9,2.391q3.3-.012,7.35-2.824a54.42,54.42,0,0,0,7.5-7.13q5.985-6.5,6.34-11.16A9.989,9.989,0,0,0,118.63,390Zm-5.11-6.13a22.541,22.541,0,0,1,7.04,2,27.411,27.411,0,0,1,6.49,4.66q7.44,6.885,7.56,15.12a19.311,19.311,0,0,1-1.29,8.22,20.165,20.165,0,0,1-3.85,6.439,23.5,23.5,0,0,1-8.56,6.342,20.07,20.07,0,0,1-11.96,1.014,23.766,23.766,0,0,1-10.62-5.941,23.192,23.192,0,0,1-7.11-11.214,21.007,21.007,0,0,1-.29-10.77,22.907,22.907,0,0,1,5.61-9.4,20.8,20.8,0,0,1,5.2-4.07,18.645,18.645,0,0,1,6.01-2.19A20.918,20.918,0,0,1,113.52,383.87Z" transform="translate(-14.04 -12.12)"/><path class="cls-1" d="M422.34,391.16a9.308,9.308,0,0,0-8.16,2.34,9.211,9.211,0,0,0-3.24,5.67,11.184,11.184,0,0,0,1.54,6.89q1.26,2.37,6.89,8.87c2.88,2.82,4.57,4.408,5.08,4.783a17.659,17.659,0,0,0,5.19,2.859,7.886,7.886,0,0,0,4.06-.029,10.484,10.484,0,0,0,4.58-2.509,8.449,8.449,0,0,0,2.96-5.654q.315-3.3-2.08-7.6a53.872,53.872,0,0,0-6.35-8.19Q426.945,391.975,422.34,391.16Zm5.75-6.38a19.466,19.466,0,0,1,8.05,2.1,20.168,20.168,0,0,1,6.01,4.48,23.387,23.387,0,0,1,5.46,9.16,20.213,20.213,0,0,1-.17,12.03,23.9,23.9,0,0,1-6.96,10,23.231,23.231,0,0,1-11.85,5.985,21.025,21.025,0,0,1-10.75-.775,22.95,22.95,0,0,1-8.79-6.523,20.929,20.929,0,0,1-3.53-5.592,18.651,18.651,0,0,1-1.58-6.21,21.075,21.075,0,0,1,.36-5.78,22.6,22.6,0,0,1,2.68-6.82,27.423,27.423,0,0,1,5.28-6.01Q419.875,384.1,428.09,384.78Z" transform="translate(-14.04 -12.12)"/><path class="cls-1" d="M195.82,409.31a5.983,5.983,0,0,1,4.68.01,6.659,6.659,0,0,1,3.8,3.33,5.338,5.338,0,0,1,.33,4.39,7.757,7.757,0,0,1-1.88,2.788,5.964,5.964,0,0,1-3.17,1.607,6.3,6.3,0,0,1-3.45-.26,5.891,5.891,0,0,1-3.29-3.375,6.442,6.442,0,0,1-.14-5.11A5.8,5.8,0,0,1,195.82,409.31Z" transform="translate(-14.04 -12.12)"/><path class="cls-1" d="M335.67,413.32a35.729,35.729,0,0,1,9.13,1.44,52.77,52.77,0,0,1,2.05,5.219q1.38,3.93,1.82,5.77a6.023,6.023,0,0,1,.09,1.823,17.67,17.67,0,0,1-3.54.443,50.41,50.41,0,0,0-6.71-5.73,23.758,23.758,0,0,0-8.11-2.806,18.715,18.715,0,0,0-7.6.363q-7.875,1.877-12.2,10.37-4.305,8.495-.98,22.441a36.606,36.606,0,0,0,5.37,12.164,21.693,21.693,0,0,0,9.33,8.014,18.307,18.307,0,0,0,11.84.892,29.606,29.606,0,0,0,6.33-2.348,5.564,5.564,0,0,0,2.48-2.176,4.112,4.112,0,0,0,.45-2.49,61.488,61.488,0,0,0-1.47-7.838q-1.17-4.882-1.75-6.68a2.351,2.351,0,0,0-.85-.764,10,10,0,0,0-2.08-.226l-4.47-.127a3.058,3.058,0,0,1-1.89-.4,5.038,5.038,0,0,1-.42-2.791,4.512,4.512,0,0,1,1.12-.564q5.145-1.224,9-1.784,1.35-.23,2.91-.6l7.44-1.87,3.14-.847c.37-.121,1.43-.34,3.19-.658q.33,1.215.54,2.064a2.878,2.878,0,0,1-.05,1.257,19.261,19.261,0,0,1-2.45,1.852,10.184,10.184,0,0,0-1.95,1.478,2.255,2.255,0,0,0-.24,1.3c.04.557.43,2.435,1.2,5.636.88,3.7,1.4,5.921,1.54,6.65.42,2.353.68,3.686.75,4a3.306,3.306,0,0,1,.05,2.278q-1.02,1.632-7.49,4.938a69.823,69.823,0,0,1-15.59,5.475,54.584,54.584,0,0,1-11.32,1.621,27.083,27.083,0,0,1-8.72-1.09,30.381,30.381,0,0,1-9.13-4.605,27.045,27.045,0,0,1-6.67-7.034,38.672,38.672,0,0,1-5.14-11.885,34.954,34.954,0,0,1-.14-14.817,31.312,31.312,0,0,1,4.43-10.845,31.9,31.9,0,0,1,9.13-9.123,39.715,39.715,0,0,1,13.39-5.773c.63-.15,1.68-.32,3.13-.5A39.886,39.886,0,0,1,335.67,413.32Z" transform="translate(-14.04 -12.12)"/><path class="cls-1" d="M380.28,419.317a9.845,9.845,0,0,0-4.21,1.233,9.166,9.166,0,0,0-4.44,4.779,11.171,11.171,0,0,0-.08,7.058q.69,2.61,4.69,10.227,3.24,5.1,3.85,5.816a17.821,17.821,0,0,0,4.4,3.973,7.9,7.9,0,0,0,3.96.9,10.463,10.463,0,0,0,5.03-1.395,8.382,8.382,0,0,0,4.17-4.826q1.065-3.141-.28-7.883a54.827,54.827,0,0,0-4.32-9.433q-4.185-7.785-8.49-9.63A9.594,9.594,0,0,0,380.28,419.317Zm3.22-4.777a18.019,18.019,0,0,1,8.11.7,19.381,19.381,0,0,1,7.36,3.885,20.245,20.245,0,0,1,4.83,5.744,23.516,23.516,0,0,1,3.23,10.173,20.185,20.185,0,0,1-2.92,11.671,23.75,23.75,0,0,1-9.06,8.154,23.193,23.193,0,0,1-12.91,3.115,20.944,20.944,0,0,1-10.28-3.213,22.993,22.993,0,0,1-7.08-8.366,20.93,20.93,0,0,1-2.16-6.253,18.783,18.783,0,0,1-.12-6.415,21.176,21.176,0,0,1,1.67-5.539,22.421,22.421,0,0,1,4.17-6.03,27.49,27.49,0,0,1,6.51-4.646A25.277,25.277,0,0,1,383.5,414.54Z" transform="translate(-14.04 -12.12)"/><path class="cls-1" d="M156.36,415.04a27.52,27.52,0,0,1,10.54,3.7q7.26,4.194,8.79,8.109c1.03,2.608,1.1,4.665.23,6.172a5.811,5.811,0,0,1-3.19,2.828,4.669,4.669,0,0,1-3.9-.556,5.8,5.8,0,0,1-2.51-2.964,9.559,9.559,0,0,1-.2-5.206,7.251,7.251,0,0,0-.3-3.922,5.438,5.438,0,0,0-2.32-2.464,10.841,10.841,0,0,0-9-.709q-5.055,1.572-8.44,7.392-4.05,6.992-2.66,13.313,1.41,6.321,6.22,9.114a15.306,15.306,0,0,0,4.38,1.811,15.718,15.718,0,0,0,3.8.018,16.9,16.9,0,0,0,2.79-.792q2.13-.725,2.88-.96a10.063,10.063,0,0,0,.71,1.085,5.355,5.355,0,0,1,.95,1.945,15.138,15.138,0,0,1-9.7,4.062q-6.135.531-12.8-3.33a24.237,24.237,0,0,1-7.28-6.567,20.036,20.036,0,0,1-3.84-8.435,17.013,17.013,0,0,1,.34-7.081,22.744,22.744,0,0,1,2.24-6.031,22.442,22.442,0,0,1,4.76-5.5,21.611,21.611,0,0,1,7.72-4.227A22.671,22.671,0,0,1,156.36,415.04Z" transform="translate(-14.04 -12.12)"/><path class="cls-1" d="M259.84,421.32l1.35.036c.29.017.7.06,1.24.126q-.75,16.746-1.14,22.936c-.08,1.224-.17,2.206-.28,2.943l-.02.29.04.925L259.69,470l-.34,7.065-.08,1.16a5,5,0,0,0,.49,2.991,3.834,3.834,0,0,0,2.41.928q1,.159,3.96.732a7.2,7.2,0,0,1,.14,1.66,13.235,13.235,0,0,1-.18,1.349l-3.82-.413q-3.18-.417-8.03-.719l-1.79-.156q-2.76-.171-8.02-.063l-3.54-.22-.05-2.272a6.184,6.184,0,0,1,2.89-.758c2.26-.118,3.56-.376,3.91-.775q1.065-1.2,1.3-5.064l.85-13.632.11-3.245.61-9.766.6-11.173.12-1.934a19.8,19.8,0,0,0-.27-5.89,7.089,7.089,0,0,0-3.6-1.243,9.484,9.484,0,0,1-2.18-.379,14.349,14.349,0,0,1-.03-1.8,3.754,3.754,0,0,1,.15-.865,34,34,0,0,0,8.06-1.465A26.5,26.5,0,0,0,259.84,421.32Z" transform="translate(-14.04 -12.12)"/><path class="cls-1" d="M195.08,429.12l3.04,1.163q-1.98,5.677-5.43,14.635l-7.43,18.335a34.908,34.908,0,0,0-1.14,3.507,29.789,29.789,0,0,0,4.21,2.748,10.288,10.288,0,0,1,1.77,1.2l-1.04,2.453q-1.245-.423-1.83-.647c-.46-.174-1.14-.469-2.06-.888q-4.53-1.992-12.29-4.954c-1.48-.565-2.93-1.061-4.36-1.487s-2.41-.736-2.92-.933l1.04-2.975,5.4,1.283a2.944,2.944,0,0,0,1.92-.329,5.988,5.988,0,0,0,1.49-2.572l.19-.5c.14-.361.41-1.009.82-1.941s.76-1.761,1.04-2.485c.22-.573.6-1.691,1.13-3.354l.94-2.236.75-2.152,2.98-7.322a17.11,17.11,0,0,0,.84-3,4.25,4.25,0,0,0-1.37-1.875,19.942,19.942,0,0,0-4.34-2.488l.97-2.533a23.692,23.692,0,0,0,8.97,1.2A20.418,20.418,0,0,0,195.08,429.12Z" transform="translate(-14.04 -12.12)"/><path class="cls-1" d="M224.91,461.048a30.2,30.2,0,0,0-6.74,1.715,14.71,14.71,0,0,0-5.62,3.244,7.558,7.558,0,0,0-1.77,3.644,4.889,4.889,0,0,0,.52,3.635,3.865,3.865,0,0,0,2.56,1.937,7.021,7.021,0,0,0,4.83-.558q2.94-1.506,3.63-2.626c.46-.746,1.08-3,1.89-6.771C224.5,463.875,224.74,462.468,224.91,461.048Zm-6.86-21.125a33.123,33.123,0,0,1,10.24.8,14.427,14.427,0,0,1,6.22,2.792,7.843,7.843,0,0,1,2.91,4.966q.48,2.982-1.05,10.153l-1.76,7.816-1.13,5.767-.31,1.472a5.114,5.114,0,0,0-.05,2.845,1.685,1.685,0,0,0,1.22,1.03,1.453,1.453,0,0,0,.95-.1l1.9-1.928.92-.151.94.946a1.377,1.377,0,0,1,.35.918v.248q-2.04,3.984-4.23,5.18a6.928,6.928,0,0,1-4.93.61,7.818,7.818,0,0,1-4.48-2.571,13.54,13.54,0,0,1-2.52-6.222,13.408,13.408,0,0,1-6.9,4.213,20.728,20.728,0,0,1-9.44-.1q-4.935-1.053-6.82-3.615a7.1,7.1,0,0,1-1.16-5.934,8.166,8.166,0,0,1,1.36-3.035,11.023,11.023,0,0,1,2.91-2.73,22.223,22.223,0,0,1,5.7-2.433c.39-.116,1.7-.4,3.95-.846l12.81-2.229c.35-1.183.66-2.392.92-3.627q1.365-6.411.29-9.072a3.764,3.764,0,0,0-3.01-2.133,10.651,10.651,0,0,0-4.55-.029,6.539,6.539,0,0,0-3.39,1.71,11.973,11.973,0,0,0-1.98,3.7,7.315,7.315,0,0,1-1.13,2.29,6.223,6.223,0,0,1-2.93,1.087c-1.35.224-2.28.4-2.77.527a10.35,10.35,0,0,1-4.33.365,2.062,2.062,0,0,1-.33-1.757,9.368,9.368,0,0,1,2.13-4.411,20.71,20.71,0,0,1,6.28-4.245A24.85,24.85,0,0,1,218.05,439.923Z" transform="translate(-14.04 -12.12)"/></svg>